<svg width="131" height="33" viewBox="0 0 131 33" fill="none" xmlns="http://www.w3.org/2000/svg">
<path d="M2 12.0564V26.3647C2 29.5177 5.478 31.4311 8.14122 29.7433L14.2285 25.8855L19.7802 29.5891C22.4383 31.3624 26 29.4569 26 26.2616V12.0258C26 10.7378 25.3798 9.52868 24.3338 8.77722L16.5608 3.19292C15.195 2.21166 13.3612 2.18957 11.9721 3.13763L13.0995 4.78956L11.9721 3.13763L3.74512 8.75255C2.65319 9.49779 2 10.7344 2 12.0564Z" fill="#E77E49" fill-opacity="0.1" stroke="#E77E49" stroke-width="4" stroke-linecap="round"/>
<ellipse cx="14.2564" cy="17" rx="3.07692" ry="3" fill="#E77E49"/>
<path d="M48.2983 7.54545H51.9886V18.8807C51.9886 20.1534 51.6847 21.267 51.0767 22.2216C50.4744 23.1761 49.6307 23.9205 48.5455 24.4545C47.4602 24.983 46.196 25.2472 44.7528 25.2472C43.304 25.2472 42.0369 24.983 40.9517 24.4545C39.8665 23.9205 39.0227 23.1761 38.4205 22.2216C37.8182 21.267 37.517 20.1534 37.517 18.8807V7.54545H41.2074V18.5653C41.2074 19.2301 41.3523 19.821 41.642 20.3381C41.9375 20.8551 42.3523 21.2614 42.8864 21.5568C43.4205 21.8523 44.0426 22 44.7528 22C45.4688 22 46.0909 21.8523 46.6193 21.5568C47.1534 21.2614 47.5653 20.8551 47.8551 20.3381C48.1506 19.821 48.2983 19.2301 48.2983 18.5653V7.54545ZM54.9567 25V11.9091H58.4169V14.2188H58.5703C58.843 13.4517 59.2976 12.8466 59.9339 12.4034C60.5703 11.9602 61.3317 11.7386 62.218 11.7386C63.1158 11.7386 63.88 11.9631 64.5107 12.4119C65.1413 12.8551 65.5618 13.4574 65.772 14.2188H65.9084C66.1754 13.4688 66.6584 12.8693 67.3572 12.4205C68.0618 11.9659 68.8942 11.7386 69.8544 11.7386C71.076 11.7386 72.0675 12.1278 72.8288 12.9062C73.5959 13.679 73.9794 14.7756 73.9794 16.196V25H70.3572V16.9119C70.3572 16.1847 70.1641 15.6392 69.7777 15.2756C69.3913 14.9119 68.9084 14.7301 68.3288 14.7301C67.6697 14.7301 67.1555 14.9403 66.7862 15.3608C66.4169 15.7756 66.2322 16.3239 66.2322 17.0057V25H62.7124V16.8352C62.7124 16.1932 62.5277 15.6818 62.1584 15.3011C61.7947 14.9205 61.3146 14.7301 60.718 14.7301C60.3146 14.7301 59.951 14.8324 59.6271 15.0369C59.3089 15.2358 59.0561 15.517 58.8686 15.8807C58.6811 16.2386 58.5874 16.6591 58.5874 17.142V25H54.9567ZM76.8473 25V11.9091H80.3672V14.1932H80.5036C80.7422 13.3807 81.1428 12.767 81.7053 12.3523C82.2678 11.9318 82.9155 11.7216 83.6484 11.7216C83.8303 11.7216 84.0263 11.733 84.2365 11.7557C84.4467 11.7784 84.6314 11.8097 84.7905 11.8494V15.071C84.62 15.0199 84.3842 14.9744 84.0831 14.9347C83.782 14.8949 83.5064 14.875 83.2564 14.875C82.7223 14.875 82.245 14.9915 81.8246 15.2244C81.4098 15.4517 81.0803 15.7699 80.8359 16.179C80.5973 16.5881 80.478 17.0597 80.478 17.5938V25H76.8473ZM91.973 25.2557C90.6491 25.2557 89.5043 24.9744 88.5384 24.4119C87.5781 23.8437 86.8366 23.054 86.3139 22.0426C85.7912 21.0256 85.5298 19.8466 85.5298 18.5057C85.5298 17.1534 85.7912 15.9716 86.3139 14.9602C86.8366 13.9432 87.5781 13.1534 88.5384 12.5909C89.5043 12.0227 90.6491 11.7386 91.973 11.7386C93.2969 11.7386 94.4389 12.0227 95.3991 12.5909C96.3651 13.1534 97.1094 13.9432 97.6321 14.9602C98.1548 15.9716 98.4162 17.1534 98.4162 18.5057C98.4162 19.8466 98.1548 21.0256 97.6321 22.0426C97.1094 23.054 96.3651 23.8437 95.3991 24.4119C94.4389 24.9744 93.2969 25.2557 91.973 25.2557ZM91.9901 22.4432C92.5923 22.4432 93.0952 22.2727 93.4986 21.9318C93.902 21.5852 94.206 21.1136 94.4105 20.517C94.6207 19.9205 94.7259 19.2415 94.7259 18.4801C94.7259 17.7188 94.6207 17.0398 94.4105 16.4432C94.206 15.8466 93.902 15.375 93.4986 15.0284C93.0952 14.6818 92.5923 14.5085 91.9901 14.5085C91.3821 14.5085 90.8707 14.6818 90.456 15.0284C90.0469 15.375 89.7372 15.8466 89.527 16.4432C89.3224 17.0398 89.2202 17.7188 89.2202 18.4801C89.2202 19.2415 89.3224 19.9205 89.527 20.517C89.7372 21.1136 90.0469 21.5852 90.456 21.9318C90.8707 22.2727 91.3821 22.4432 91.9901 22.4432ZM104.408 17.4318V25H100.777V7.54545H104.305V14.2188H104.459C104.754 13.446 105.232 12.8409 105.891 12.4034C106.55 11.9602 107.376 11.7386 108.371 11.7386C109.28 11.7386 110.072 11.9375 110.749 12.3352C111.43 12.7273 111.959 13.2926 112.334 14.0312C112.714 14.7642 112.902 15.642 112.896 16.6648V25H109.266V17.3125C109.271 16.5057 109.067 15.8778 108.652 15.429C108.243 14.9801 107.669 14.7557 106.93 14.7557C106.436 14.7557 105.999 14.8608 105.618 15.071C105.243 15.2812 104.947 15.5881 104.732 15.9915C104.521 16.3892 104.413 16.8693 104.408 17.4318ZM120.935 24.054V11.9858H123.987V24.054H120.935ZM116.427 19.5455V16.4943H128.495V19.5455H116.427Z" fill="#E77E49"/>
</svg>
